# xmcd CD database file
#
# Track frame offsets:
#	150
#	11564
#	26095
#	53870
#	68131
#	82322
#	96747
#	110269
#	126783
#	151626
#	163608
#	185316
#	208566
#	229297
#	232287
#	251602
#	267295
#	287129
#	308264
#	326211
#
# Disc length: 4398 seconds
#
# Revision: 5
# Processed by: cddbd v1.5.2PL0 Copyright (c) Steve Scherf et al.
# Submitted via: CDex 1.70beta2
#
DISCID=1d112c14
DTITLE=Petr Kalandra - Live and Studio 1964-1995
DYEAR=1998
DGENRE=Blues
TTITLE0=Chtel bych umet hrat blues
TTITLE1=Zivot te nauci
TTITLE2=Hospodskej
TTITLE3=Mestacky blues
TTITLE4=Will the Circle Be Unbroken
TTITLE5=Podzimni sen
TTITLE6=Pamatuj
TTITLE7=Nekdy se jdu opit
TTITLE8=Tri dni ma nahanali
TTITLE9=To jsem ja
TTITLE10=Jak jste se mely, me mile deti
TTITLE11=Sweet Virginia
TTITLE12=Maggie's Farm
TTITLE13=Cesta domu
TTITLE14=As I Went Out One Morning
TTITLE15=San Francisco Bay Blues
TTITLE16=I Shall Be Released
TTITLE17=Blues stary žensky
TTITLE18=Spital u sv. Jakuba
TTITLE19=Gabriel's Mother's Hiway Ballad #16 Blues
EXTD=YEAR: 1998
EXTT0=
EXTT1=
EXTT2=
EXTT3=
EXTT4=
EXTT5=
EXTT6=
EXTT7=
EXTT8=
EXTT9=
EXTT10=
EXTT11=
EXTT12=
EXTT13=
EXTT14=
EXTT15=
EXTT16=
EXTT17=
EXTT18=
EXTT19=
PLAYORDER=
